<?xml version="1.0"?>
<svg xmlns="http://www.w3.org/2000/svg" xmlns:xlink="http://www.w3.org/1999/xlink" xmlns:svgjs="http://svgjs.com/svgjs" version="1.1" width="512" height="512" x="0" y="0" viewBox="0 0 1200 1200" style="enable-background:new 0 0 512 512" xml:space="preserve" class=""><g><g xmlns="http://www.w3.org/2000/svg"><path d="m88 642.3h180.7v249.8h-180.7z" fill="#fffefe" data-original="#000000" class=""/><path d="m284.9 642.3v254l234.2 181.4c13 10.1 31.5 9.6 44-1.1l6.4-5.5-119.3-120c-3.2-3.2-3.1-8.3 0-11.5 3.2-3.2 8.3-3.1 11.5 0l125.5 126.4v.1l10.1 10.1c7 7 18.4 7.1 25.5.2l24.8-24.2-148.2-149.3c-3.2-3.2-3.1-8.3 0-11.5 3.2-3.2 8.3-3.1 11.5 0l148.3 149.3 37.6-36.8-148.1-149.2c-3.2-3.2-3.1-8.3 0-11.5 3.2-3.2 8.3-3.1 11.5 0l148.3 149.3 24.5-24c3.5-3.4 5.4-8 5.4-13 0-1.4-.2-2.8-.5-4.1-.8-3.3-2.4-6.3-4.8-8.7l-149.8-149.7-70 40.4c-34.5 19.9-76.8 19-110.4-2.3-11.6-7.4-18.4-20-18.1-33.8.3-14 7.7-26.6 19.8-33.6l93.3-53.9 49-28.2-47.8-39.2h-214.2z" fill="#fffefe" data-original="#000000" class=""/><path d="m931.3 642.3h180.7v249.8h-180.7z" fill="#fffefe" data-original="#000000" class=""/><path d="m647.5 642.3-82 47.3-.4.3-58.9 34-93.3 53.9c-7.2 4.1-11.5 11.6-11.7 19.9-.2 8.1 3.8 15.5 10.6 19.8 28.5 18 64.4 18.8 93.6 1.9l75.4-43.5c3.2-1.8 7.2-1.3 9.8 1.3l154.3 154.3c2.5 2.5 4.6 5.4 6.2 8.5l164.2-45.7v-252z" fill="#fffefe" data-original="#000000" class=""/><path d="m600 537.7c116.6 0 211.4-94.8 211.4-211.4s-94.8-211.3-211.4-211.3-211.4 94.8-211.4 211.4 94.8 211.3 211.4 211.3zm-74.9-169.1c1.7-2.4 4.4-3.9 7.3-4.1h.9c4.5 0 8.5 3 9.7 7.3 1.6 5.8 3.9 11 6.8 15.3 4.7 6.9 12 12.6 21.7 16.9 6.6 2.9 13.9 4.8 21.7 5.7 2 .2 3.9.4 5.9.5 1.5.1 3 .1 4.6.1 1.1 0 2.3 0 3.4-.1 9.2-.3 17.5-1.9 24.8-4.7 8.3-3.2 14.7-7.8 18.8-13.6 4.2-5.8 6.3-12.2 6.3-19.1 0-7-2.1-13.3-6.2-18.5-4-5.2-10.6-9.5-19.5-12.9-5.1-2-15.7-4.9-31.4-8.8-1.6-.4-3.3-.8-5.1-1.2-18.3-4.4-31.2-8.6-38.4-12.4-9.1-4.8-16-10.8-20.5-17.8-4.4-7-6.7-14.9-6.7-23.6 0-9.6 2.8-18.7 8.2-27 5.5-8.3 13.5-14.8 24-19.1 9.1-3.8 19.3-6 30.2-6.5v-23.9c0-4.5 3.6-8.1 8.1-8.1s8.1 3.6 8.1 8.1v24.2c10.3.9 19.7 3.1 28.1 6.6 10.8 4.6 19.3 11.4 25.1 20.2 3.1 4.8 5.5 9.9 7.1 15.4.9 2.9.3 6.1-1.4 8.6s-4.5 4.1-7.5 4.3c-.3 0-.5 0-.8 0-4.5 0-8.4-2.9-9.7-7.3-2.5-8.4-6.9-15.1-13-20.2-7-5.7-16.8-9.2-29.1-10.2-2.5-.2-5-.3-7.7-.3h-.5c-2 0-4 0-5.8.1-14.1.7-24.4 3.8-31.5 9.4-8.1 6.5-12.3 14.6-12.3 23.9 0 8.1 3 15 8.9 20.2 5.5 5 18.8 9.9 40.6 14.9l.5.1c.3.1.5.1.8.2 21.5 4.9 36.4 9.1 44.2 12.7 11.2 5.2 19.6 11.8 24.9 19.6 5.2 7.8 7.9 16.9 7.9 27.1 0 10.1-2.9 19.8-8.8 28.8-5.8 9-14.3 16.1-25.3 21.1-10.3 4.7-21.9 7.3-34.6 7.6v23.8c0 4.5-3.6 8.1-8.1 8.1s-8.1-3.6-8.1-8.1v-24.3c-12.2-1-22.9-3.4-31.8-7.3-11.8-5.1-21.1-12.8-27.8-23-4.2-6.4-7.2-13.3-8.9-20.7-.4-2.8.2-5.7 1.9-8z" fill="#fffefe" data-original="#000000" class=""/></g></g></svg>
