<?xml version="1.0"?>
<svg xmlns="http://www.w3.org/2000/svg" xmlns:xlink="http://www.w3.org/1999/xlink" xmlns:svgjs="http://svgjs.com/svgjs" version="1.1" width="512" height="512" x="0" y="0" viewBox="0 0 512 512" style="enable-background:new 0 0 512 512" xml:space="preserve" class=""><g><g xmlns="http://www.w3.org/2000/svg"><path d="m15 482c-8.291 0-15 6.709-15 15s6.709 15 15 15h60c8.291 0 15-6.709 15-15s-6.709-15-15-15h-15v-94.175c19.016 16.75 49.285 33.175 91 33.175s70.984-16.425 90-33.175v94.175h-15c-8.291 0-15 6.709-15 15s6.709 15 15 15h60c8.291 0 15-6.709 15-15s-6.709-15-15-15h-15v-94.175c19.016 16.75 48.285 33.175 90 33.175s71.984-16.425 91-33.175v94.175h-15c-8.291 0-15 6.709-15 15s6.709 15 15 15h60c8.291 0 15-6.709 15-15s-6.709-15-15-15h-15v-153.763c17.422-6.213 30-22.707 30-42.237 0-24.814-20.186-45-45-45s-45 20.186-45 45c0 19.53 12.578 36.024 30 42.237v13.779c-6.414 10.545-34.629 48.984-91 48.984-56.338 0-83.403-38.036-90-48.935v-13.828c17.422-6.213 30-22.707 30-42.237 0-24.814-20.186-45-45-45s-45 20.186-45 45c0 19.53 12.578 36.024 30 42.237v13.779c-6.414 10.545-33.629 48.984-90 48.984-56.338 0-84.403-38.036-91-48.935v-13.828c17.422-6.213 30-22.707 30-42.237 0-24.814-20.186-45-45-45s-45 20.186-45 45c0 19.53 12.578 36.024 30 42.237v153.763z" fill="#ffffff" data-original="#000000" class=""/><path d="m15 211h211c8.291 0 15-6.709 15-15v-181c0-8.291-6.709-15-15-15h-211c-8.291 0-15 6.709-15 15v181c0 8.291 6.709 15 15 15z" fill="#ffffff" data-original="#000000" class=""/><path d="m286 211h211c8.291 0 15-6.709 15-15v-181c0-8.291-6.709-15-15-15h-211c-8.291 0-15 6.709-15 15v181c0 8.291 6.709 15 15 15z" fill="#ffffff" data-original="#000000" class=""/></g></g></svg>
