<svg id="Layer_1" data-name="Layer 1" xmlns="http://www.w3.org/2000/svg" viewBox="0 0 2405.09 1262.6"><defs><style>.cls-1{font-size:195.91px;font-family:HelveticaNeue-Bold, Helvetica Neue;font-weight:700;}.cls-1,.cls-4{fill:#fff;}.cls-2{letter-spacing:-0.09em;}.cls-3{letter-spacing:-0.05em;}</style></defs><title>III THEME LOGOO</title><text class="cls-1" transform="translate(1143.6 561.62)">NITI<tspan class="cls-2" x="380.46" y="0">A</tspan><tspan x="496.64" y="0">TE</tspan><tspan x="0" y="188.75">NNO</tspan><tspan class="cls-3" x="442.76" y="188.75">V</tspan><tspan class="cls-2" x="557.17" y="188.75">A</tspan><tspan x="673.35" y="188.75">TE</tspan><tspan x="0" y="377.49">NSPIRE</tspan></text><path class="cls-4" d="M1468.1,1071.34c7.08-1.29,14.24-.93,22.05-.15.13,3.75.35,7,.35,10.34q0,64.71,0,129.42,0,110.15-.1,220.28c0,6.75,1.58,12.11,5.89,17.5,26.36,33,52.37,66.23,78.49,99.39,1,1.2,1.81,2.47,2.85,3.59,3.09,3.3,4.19,7,4.14,11.66-.23,20.8-.1,41.61-.1,62.41q0,23.42,0,46.81c0,2.11-.27,4.22-.43,6.63a21.17,21.17,0,0,1-4.47,1.06c-8.57.11-17.14,0-25.7.14-3.78.09-6.23-1.5-8.48-4.38-9.56-12.33-19.29-24.52-28.95-36.77-13.63-17.3-27.13-34.71-41-51.84a24.64,24.64,0,0,1-5.9-16.62q.26-244.15.16-488.3C1466.94,1078.91,1466.19,1075.18,1468.1,1071.34Z" transform="translate(-458.99 -739.8)"/><path class="cls-4" d="M1228.06,859.77c6.84,11.36,13.28,22.05,19.77,32.85-2.61,6.75-5.09,13.3-7.68,19.81-12.13,30.37-24.42,60.66-36.31,91.11-2.16,5.54-5.51,9-10.52,11.87q-142.62,82.14-285.1,164.52-69.48,40.11-138.94,80.26c-2.9,1.68-5.87,3.24-9.17,5.06-5.7-5.38-8.07-12.68-12.4-18.74,2.2-3.26,5.2-4.26,7.75-5.74q81.78-47.26,163.6-94.45,71.48-41.27,143-82.46a21.09,21.09,0,0,0,9.72-11.38c16.16-40.93,32.67-81.73,48.84-122.66a22.93,22.93,0,0,1,10.24-12.14c29.75-17.56,59.33-35.41,89-53.15C1222.17,863.13,1224.56,861.79,1228.06,859.77Z" transform="translate(-458.99 -739.8)"/><path class="cls-4" d="M1287.43,1773.84c-2.72,7.24-7.21,13-10.63,19-3.7,1-5.69-1.34-8-2.64q-66.37-38.19-132.7-76.5-88.58-51.14-177.08-102.37a22.2,22.2,0,0,0-15.64-3c-15.68,2.53-31.44,4.61-47.15,6.91-14.52,2.12-29,4.33-43.53,6.44-10.88,1.58-21.79,3-32.67,4.6a13.88,13.88,0,0,1-9.59-2Q758.65,1593,706.7,1561.92a15.66,15.66,0,0,1-1.76-1.59,39.61,39.61,0,0,1,2-4.6c3.07-5.29,6.39-10.44,9.34-15.79a9.93,9.93,0,0,1,7.91-5.46q20.9-2.87,41.76-5.86,22.23-3.18,44.45-6.43c9.68-1.41,19.35-2.83,29-4.39,3.64-.59,6.52.87,9.47,2.58q23.42,13.56,46.87,27.06l382.89,221.14C1281.5,1770.25,1284.34,1772,1287.43,1773.84Z" transform="translate(-458.99 -739.8)"/><path class="cls-4" d="M1309.43,1738.13c-3.6,6.35-6.37,11.75-10.3,16.78-3.69-.46-6.31-2.71-9.13-4.33q-79.82-46-159.58-92.12Q992.67,1578.92,855,1499.29a22.09,22.09,0,0,0-15.64-2.9c-15.37,2.51-30.81,4.55-46.22,6.81-14.8,2.16-29.6,4.41-44.41,6.54-4.48.65-9,1.06-14.12,1.64a22.89,22.89,0,0,1,1.2-4c12.55-23.17,69.53-116.74,74.51-122.31,2.05,1.09,4.22,2.15,6.29,3.38,15,8.92,29.84,18,44.92,26.72a21.19,21.19,0,0,1,9.78,11.41q12.72,32.91,26.08,65.57c5,12.19,1.71,8.6,13.14,15.2q152,87.85,304.1,175.61,43.28,25,86.55,50C1303.75,1734.46,1306.24,1736.13,1309.43,1738.13Z" transform="translate(-458.99 -739.8)"/><path class="cls-4" d="M1261.33,917.12c5.2,6.3,65.33,106.1,71.44,118.37a64.16,64.16,0,0,1-5.46,4.09c-20.18,12.12-40.47,24.07-60.54,36.36a18.42,18.42,0,0,1-13,2.82c-10-1.51-20-3-29.92-4.43-10.28-1.52-20.57-2.95-30.82-4.59-5.68-.9-10.5.28-15.62,3.24q-103.9,60.32-208,120.22L789.88,1296.87c-2.61,1.51-5.31,2.89-8.22,4.47-3-2.16-4.15-5.42-5.91-8.17-1.64-2.55-3.08-5.24-4.62-7.91,1.22-3.49,4.52-4.21,7-5.66q55.55-32.22,111.18-64.26,160.84-92.86,321.77-185.63a21.1,21.1,0,0,0,9.69-11.42c11.86-30.15,24-60.2,36-90.28C1258.19,924.62,1259.62,921.26,1261.33,917.12Z" transform="translate(-458.99 -739.8)"/><path class="cls-4" d="M1425.9,1071.11a76.56,76.56,0,0,1,19.22.1c.29,2.1.61,3.56.66,5,.09,3.06,0,6.12,0,9.18q0,245.58,0,491.16c0,13.78-1.53,9,6.93,19.8,19.39,24.84,39,49.53,58.49,74.28,2,2.61,4,5.27,6.06,7.89-1,.77-1.43,1.46-1.9,1.46q-66.54.23-133.09.31a35.32,35.32,0,0,1-4.77-.69,51.61,51.61,0,0,1-.65-5.63c0-23.25.07-46.51-.12-69.77,0-4.36,1.66-7.56,4.19-10.75q18.52-23.37,37-46.84c1.51-1.93,2.92-3.94,4.52-5.78a10.47,10.47,0,0,0,2.59-7.6c-.11-3,0-6.12,0-9.18q0-219.87,0-439.75C1425.07,1080.13,1424.58,1075.85,1425.9,1071.11Z" transform="translate(-458.99 -739.8)"/><path class="cls-4" d="M809.78,1349.72c-6.4-10.08-12-19.49-17.59-29.28,2.72-1.72,5-3.25,7.33-4.61q191.06-110.32,382-220.74A24.76,24.76,0,0,1,1199,1092c7.54,1.24,15.12,2.19,22.67,3.37,2.35.37,4.65,1.09,7.08,1.67-.5,1-.61,1.74-1,2Q1019.33,1224.07,809.78,1349.72Z" transform="translate(-458.99 -739.8)"/><path class="cls-4" d="M900.06,1438.87c2.69,1.43,4.55,2.32,6.31,3.37Q1119.58,1570,1333.22,1698a179.94,179.94,0,0,1-12.62,21.28c-3.06-1.63-6-3.08-8.81-4.71q-123.51-71.28-247-142.6l-138.19-79.8c-1.59-.92-3.18-1.84-4.79-2.72a9.79,9.79,0,0,1-4.73-5.32c-5.37-13.65-10.88-27.24-16.29-40.88A24,24,0,0,1,900.06,1438.87Z" transform="translate(-458.99 -739.8)"/><path class="cls-4" d="M1264.93,1812.75c-12.44,20.77-24.36,40.67-36.53,61a49.88,49.88,0,0,1-5.07-2.23c-4.76-2.77-9.34-5.87-14.2-8.42-4.13-2.16-6.21-5.33-7.54-9.71-5.89-19.3-12.24-38.45-18-57.78-1.61-5.42-4.54-8.72-9.37-11.5q-101-58-201.74-116.46a20.33,20.33,0,0,0-13.91-2.86c-14.5,2.19-29,4.26-43.52,6.4-5.44.8-10.87,1.69-16.31,2.48a11.27,11.27,0,0,1-7.92-1.34c-14.09-8.6-28.27-17-42.4-25.58a7.26,7.26,0,0,1-1.27-1.47c1.22-2.13,3.56-2,5.44-2.25,13.9-2.09,27.82-4,41.73-6,14.82-2.11,29.72-3.78,44.43-6.49,6.27-1.15,11.18,0,16.45,3.07q96,55.65,192.18,111.08L1257,1808C1259.36,1809.36,1261.68,1810.8,1264.93,1812.75Z" transform="translate(-458.99 -739.8)"/><path class="cls-4" d="M1092.07,943.09c-.67,2-1.26,4-2,5.88-11.75,29.52-23.66,59-35.17,88.6a22.23,22.23,0,0,1-10.45,11.93q-85.83,49.3-171.5,98.9-63.49,36.67-127,73.33c-2.89,1.67-5.85,3.21-8.41,4.6a11.22,11.22,0,0,1-1.39-.36,1.68,1.68,0,0,1-.71-.54q-14-23.13-28-46.29c-.93-1.55-1.74-3.18-2.57-4.7,5.07-4.83,19.23-13.66,32-20,17,3.77,34.36,7.38,51.55,11.53,6.39,1.54,11.6.63,17.29-2.68q99.88-58,200-115.53a22,22,0,0,0,10.43-12c7.18-18.83,15-37.43,22.19-56.25,2.18-5.69,5.31-9.82,10.73-12.87,12-6.72,23.65-14,35.45-21.08,2.07-1.24,4.19-2.4,6.28-3.59Z" transform="translate(-458.99 -739.8)"/><path class="cls-4" d="M1532.85,1401.21l34.56,43.94c4,5,7.89,10.15,11.91,15.16a10.14,10.14,0,0,1,2.37,6.72c-.07,16.83,0,33.66-.11,50.49,0,.5-.46,1-1,2.1a13.42,13.42,0,0,1-2.64-2q-31.29-39.6-62.55-79.24c-2.43-3.06-3.69-6.2-3.34-10.07.13-1.52,0-3.06,0-4.59V1071.81c1.86-.46,3.25-1.1,4.64-1.1q29.83-.11,59.67,0a26.22,26.22,0,0,1,4.55.85c1.33,5.39.73,10.6.69,15.72-.1,14.37,1.76,9.83-8.25,20.92-11.47,12.72-23.16,25.25-34.74,37.89-2.05,2.24-4,4.59-5.79,6.65Z" transform="translate(-458.99 -739.8)"/><path class="cls-4" d="M1377.77,1071.75c7.07-1.48,16.66-1.56,25.15-.21a49.21,49.21,0,0,1,.8,5.11c.15,2.44,0,4.89,0,7.34v435.24c0,11,0,11-7,19.81-5.11,6.48-10.2,13-15.33,19.47-.88,1.1-2,2.06-3,3.13-.71-.87-1.37-1.29-1.37-1.72q-.11-242.4-.08-484.81A14.69,14.69,0,0,1,1377.77,1071.75Z" transform="translate(-458.99 -739.8)"/><path class="cls-4" d="M1580.54,1427.28c-5.93-7.47-10.89-13.61-15.72-19.86-3.53-4.58-6.89-9.3-10.32-14-.1-5.5-.28-11-.28-16.5q0-102.73,0-205.49v-11c8.32-9,16.42-17.71,24.56-26.4.33-.35,1.09-.3,1.65-.44.36.43,1,.84,1,1.28C1582.54,1155.09,1581.93,1418.22,1580.54,1427.28Z" transform="translate(-458.99 -739.8)"/><path class="cls-4" d="M924.92,1691.24c11.34-1.68,21.28-3.07,31.18-4.64,4.57-.72,8.23,1,12,3.18q49.14,28.54,98.42,56.87c29.91,17.27,59.76,34.61,89.77,51.7,4.85,2.75,7.89,6,9.33,11.54,2.23,8.56,5.3,16.9,7.93,25.36a37.52,37.52,0,0,1,.88,5.14c-1.18.17-1.9.52-2.28.29q-122.33-73.15-244.61-146.42C926.9,1693.85,926.46,1693,924.92,1691.24Z" transform="translate(-458.99 -739.8)"/><path class="cls-4" d="M1010.56,991.23c-.94,2.64-1.56,4.58-2.31,6.47-3.27,8.23-6.77,16.37-9.8,24.69a18,18,0,0,1-8.61,10Q937,1062.67,884.3,1093.25c-27.5,15.89-55.06,31.67-82.46,47.73-5.3,3.11-10.11,4.63-16.31,2.55-6.5-2.17-13.41-3.12-20.19-4.61.38-1.15.39-2,.76-2.21Q886.66,1064.29,1007.27,992C1007.93,991.6,1008.82,991.62,1010.56,991.23Z" transform="translate(-458.99 -739.8)"/><path class="cls-4" d="M555.23,1286.47c-4.61-6.93-8.9-13.48-11.82-20.79,37.93-23.92,107.52-16.6,139.05,41.37,14.19,26.09,16.73,53.38,7.77,81.63-7.7,24.3-25.89,46.88-44.4,55.4l-11.74-20.16c2.21-1.87,4.19-3.61,6.24-5.28,14-11.37,23.41-25.63,27.57-43.28,9.86-41.81-13.84-82.47-55.37-94.35-16.68-4.77-33.27-3.71-49.53,2.26C560.47,1284.2,558,1285.32,555.23,1286.47Z" transform="translate(-458.99 -739.8)"/><path class="cls-4" d="M660.27,1258.8l6-10.27c43.66,28,71.16,89.43,50.38,150.86-10,29.47-28.54,52.4-54.59,69.22-19.07,12.31-40.11,18.58-62.88,20.17a19.51,19.51,0,0,1-.31-11.9,43.17,43.17,0,0,1,5.12-1.39,145.88,145.88,0,0,0,36-10.09c30-12.83,50.06-35.09,62.17-65.17,20.9-51.9,1.95-105.64-35.37-135.82C664.72,1262.72,662.72,1260.9,660.27,1258.8Z" transform="translate(-458.99 -739.8)"/><path class="cls-4" d="M522.18,1395.92l-20.25,11.74a51.45,51.45,0,0,1-3.6-5.38,99.21,99.21,0,0,1-9.57-59.6q5.65-39.92,36.42-65.69a42,42,0,0,1,3.67-2.73,8.36,8.36,0,0,1,2-.63c4.59,6.33,8.23,13.3,11.9,20.4C511.46,1323,504.66,1356.78,522.18,1395.92Z" transform="translate(-458.99 -739.8)"/><path class="cls-4" d="M584.27,1476.23v11.26c-2.82,2-6,1.1-8.82.65-55.57-8.91-92.87-40-110.45-93.37-9.17-27.83-7.47-56.09,2.48-83.7,1-2.77,1.46-6,4.59-8.06l9.18,5.36c.24,3.33-1.23,5.74-2.05,8.29a139.68,139.68,0,0,0-6.65,31.29c-2.43,29,5.65,55,22.41,78.5q27.69,38.79,74.68,47.28C574.14,1474.55,578.66,1475.28,584.27,1476.23Z" transform="translate(-458.99 -739.8)"/><path class="cls-4" d="M544.15,1356a32.69,32.69,0,0,1-12.76.15c-3.33-13.78,6.48-35.48,21.3-46.87,21.47-16.51,44.4-18.84,68.47-6.13,19.57,10.33,32.38,32.19,30.91,52.61-4.28,1.5-8.63,1.18-13.4.14-1.28-13.83-6.26-25.66-17-34.45-8.5-7-18.18-11-29.33-11.21-12.88-.2-23.8,4.47-33.16,13.11S545.91,1343.44,544.15,1356Z" transform="translate(-458.99 -739.8)"/><path class="cls-4" d="M532.94,1371.28c4.21-1,8.45-.49,13.17-.31,1.13,2,2.41,4,3.47,6.14,7.52,15.19,20.06,23.58,36.46,26.06,15,2.26,35.6-4.77,46.12-23.71,1.47-2.65,2.75-5.4,4.24-8.32,2.56-.14,5-.38,7.35-.38,2.11,0,4.21.27,6.34.43-3.64,26.24-31,47.86-59.51,47.25C562.36,1417.83,535.8,1396.19,532.94,1371.28Z" transform="translate(-458.99 -739.8)"/><path class="cls-4" d="M616.72,1358.51c-.21,16.61-14.52,25.57-26.05,25.16a25.54,25.54,0,0,1-24.47-25.83c.15-13.61,11.76-25.69,25.12-25.3C606.69,1333,617,1345.16,616.72,1358.51Z" transform="translate(-458.99 -739.8)"/><path class="cls-4" d="M621,1429.93c5.14,6.83,8.4,14,12.46,20.68-21.09,12.94-60.74,13.55-83.52.42,1.21-3.67,3.5-6.88,5.42-10.26s4-6.78,6.3-10.6C581.35,1436.74,600.83,1437.37,621,1429.93Z" transform="translate(-458.99 -739.8)"/><path class="cls-4" d="M584.4,1225.63v11.11a38.66,38.66,0,0,1-5.94,1.7q-51.91,6.3-83.22,48.18c-2,2.69-4,5.43-6,8.12-.16.23-.51.32-1.25.77-3.61-.67-6.63-3-9.69-5.32C496.07,1254.17,542,1225.44,584.4,1225.63Z" transform="translate(-458.99 -739.8)"/><path class="cls-4" d="M509,1419.57l20.53-11.93c4,1.79,6.64,5.28,9.9,7.9,3.06,2.48,5.92,5.21,8.7,7.67a64.25,64.25,0,0,1-12,21.12A94.21,94.21,0,0,1,509,1419.57Z" transform="translate(-458.99 -739.8)"/><path class="cls-4" d="M598.51,1237.12v-11c12.78-2.61,43.31,5.81,55.52,15.34-1.75,3.09-3.54,6.22-5.55,9.75a20.63,20.63,0,0,1-3.44-1c-13.59-6.52-27.78-10.9-42.88-12A22.8,22.8,0,0,1,598.51,1237.12Z" transform="translate(-458.99 -739.8)"/><path class="cls-4" d="M1442.64,1800.39l-11.85-20.55a39.46,39.46,0,0,1,4.65-3.17,97.53,97.53,0,0,1,40.67-9.71c23.1-.58,44.27,5.19,63,18.77,25.63,18.62,40.85,43.78,43.45,75.46,3.28,39.85-12.17,71.49-44.49,94.94a36.16,36.16,0,0,1-3.48,2c-3.15-2.67-4.5-6.48-6.53-9.78s-3.94-6.88-6.09-10.65c3-2.53,5.86-4.78,8.57-7.17,20.24-17.83,29.54-40.43,27.13-67.09-3.36-37.37-29.11-60-55.83-68.15a75.44,75.44,0,0,0-48.63,1.16C1450,1797.55,1446.89,1798.78,1442.64,1800.39Z" transform="translate(-458.99 -739.8)"/><path class="cls-4" d="M1548.28,1772.79c1.47-2.76,2.67-5.17,4-7.5a20.79,20.79,0,0,1,2.19-2.66c42.6,27.57,67.68,85.47,52.36,142.87-13.14,49.25-58.73,93.77-119.41,96.9-2.13-3.61-1.07-7.48-.82-11.83,4.51-.93,8.91-1.85,13.31-2.73a139.26,139.26,0,0,0,31.29-10.09c29.36-13.55,48.41-36.34,59.77-66.24,18.54-48.81,2.23-101.18-35.6-132.67C1553.1,1776.92,1550.83,1775,1548.28,1772.79Z" transform="translate(-458.99 -739.8)"/><path class="cls-4" d="M1418.3,1786.72c5,7.25,8.4,14,12.41,20.88-2.15,2.22-4,4.19-5.87,6.07-16.78,16.59-24.83,36.73-24.33,60.25a76.7,76.7,0,0,0,6.14,27.6c1,2.5,2.08,5,3.24,7.8-6.34,4.78-13.18,8.08-20.09,12.09a46.35,46.35,0,0,1-3.66-5.26,94.32,94.32,0,0,1-10.4-40.51c-1-32.79,10.19-60.44,34.64-82.53C1412.63,1791.08,1415.09,1789.29,1418.3,1786.72Z" transform="translate(-458.99 -739.8)"/><path class="cls-4" d="M1471.85,1990.17c.67,4.24.92,8-.13,11.77-12.53.9-35.14-4.93-52-13.24-21.1-10.38-37.47-25.92-50.6-45.28-26.23-38.67-28.14-89.56-10.14-126.1,4,.39,6.88,2.94,10.42,5.47-.88,3-1.62,5.87-2.59,8.69a126,126,0,0,0-6.7,33.11c-1.89,31.13,8.41,58.27,27.72,82.21,18.44,22.84,42.51,36.18,71.34,41.11C1463,1988.58,1467,1989.3,1471.85,1990.17Z" transform="translate(-458.99 -739.8)"/><path class="cls-4" d="M1526.92,1870.36c-.62-3.08-1.23-5.74-1.68-8.43-3.65-21.43-24.53-38-46.47-37.87-19.4.16-41.36,14.48-45.46,39-.35,2.08-.61,4.17-1,6.59-4.66,1.34-9,1-13.39.35-1.83-20.17,9.24-40.19,28.7-51.85,21.77-13,43.6-12,64.93.93,18,10.91,29,32.15,26.92,51.05a34.52,34.52,0,0,1-4.22.52C1532.58,1870.66,1529.87,1870.47,1526.92,1870.36Z" transform="translate(-458.99 -739.8)"/><path class="cls-4" d="M1420.5,1885.46a36,36,0,0,1,4.78-.64c3,0,6,.21,8.89.32,16.42,41.23,71.49,44.23,90.42,0h13.18c-.19,2,0,3.85-.55,5.36-9,23.79-25.77,37.89-51.28,41-30.29,3.72-56.42-15.67-64.7-41.38A32.16,32.16,0,0,1,1420.5,1885.46Z" transform="translate(-458.99 -739.8)"/><path class="cls-4" d="M1478.85,1846.43c13.8-.25,25.92,11.73,25.93,25.6,0,13.56-11.42,25.65-25,25.48-16.25-.2-25.69-12.41-25.87-25.51C1453.69,1858.46,1465.38,1846.68,1478.85,1846.43Z" transform="translate(-458.99 -739.8)"/><path class="cls-4" d="M1508.9,1943.88c4.84,6.57,8.35,13.63,12.26,20.41-7.29,5.46-21.52,9.54-37.35,10.14a99.42,99.42,0,0,1-46.77-9.15l12.24-21.17c10.1,2.44,19.66,5.35,29.86,5.27S1499,1947,1508.9,1943.88Z" transform="translate(-458.99 -739.8)"/><path class="cls-4" d="M1471.61,1739c1.2,3.81,1,7.63.12,11.87-2.79.62-5.4,1.4-8.07,1.76-34.2,4.74-61.21,21.37-81.58,49.08l-6.18,8.4-10.37-6.19C1382.36,1773.42,1419.64,1741.51,1471.61,1739Z" transform="translate(-458.99 -739.8)"/><path class="cls-4" d="M1424.48,1958.51a93.57,93.57,0,0,1-27.63-25.1l20.46-11.88c7.15,4.44,12.7,10.49,19,16.07A122,122,0,0,1,1424.48,1958.51Z" transform="translate(-458.99 -739.8)"/><path class="cls-4" d="M1486.49,1750.93c-.11-4.56-1-8.44.75-12.18,22.47,1.91,40.78,7.26,54.37,16-.76,1.73-1.47,3.62-2.41,5.39-.84,1.59-1.93,3-3.25,5.09-1.17-.44-2.24-.76-3.24-1.24-12.74-6-26-10.37-40.08-11.67A49.61,49.61,0,0,1,1486.49,1750.93Z" transform="translate(-458.99 -739.8)"/><path class="cls-4" d="M1442.88,801.4c-4.45-6.88-8.21-13.76-12-20.6,31.8-21.34,99.43-20.77,135.12,33.84,34.11,52.19,14,117-30.87,144.06-4.27-3.58-9.28-11.78-12.7-20.94,19.36-13.55,31.62-31.91,34.83-55.7a76.37,76.37,0,0,0-10.07-50.31c-10.6-17.93-26.14-29.65-46-35.7S1462,792.61,1442.88,801.4Z" transform="translate(-458.99 -739.8)"/><path class="cls-4" d="M1486.33,1003c0-3.42-.06-6.14,0-8.86a12.41,12.41,0,0,1,.74-2.69c7.19-1.56,14.36-2.84,21.39-4.68,23-6,43.2-16.83,59.16-34.75a119,119,0,0,0,28.84-59.49c7.83-45-6.83-82.39-40.81-112.49-2.26-2-4.62-3.88-7.34-6.15,1-2.07,1.8-4,2.8-5.76.88-1.55,2-3,3-4.43,40.76,24.78,68.73,83.87,52.62,143.25C1593,957.76,1544.5,1001.71,1486.33,1003Z" transform="translate(-458.99 -739.8)"/><path class="cls-4" d="M1418.62,787.53l12.1,21c-2.21,2.27-4,4.22-6,6.1-16.51,16.36-24.55,36.19-24.28,59.37a76.91,76.91,0,0,0,6.2,28.5c1,2.51,2.08,5,3.22,7.77-6.45,4.68-13.17,8.17-19.81,11.75-13.35-16-16.65-44.31-13.42-65.71C1380.93,828.2,1394.49,805.38,1418.62,787.53Z" transform="translate(-458.99 -739.8)"/><path class="cls-4" d="M1471.8,991.11a39.37,39.37,0,0,1,.52,3.95c.08,2.41,0,4.82,0,7.76-2.16.23-3.92.77-5.57.55-29.81-4-56.73-14.47-78.49-35.87-19.87-19.53-33.35-42.75-38.74-70.31-5-25.56-2.48-50.43,7-74.64.54-1.4,1.3-2.72,1.92-4,5.36,1,5.36,1,10.78,5.6-.78,2.63-1.55,5.52-2.51,8.35a126.23,126.23,0,0,0-6.68,33.12c-1.85,31.12,8.47,58.25,27.8,82.17,18.45,22.84,42.52,36.15,71.37,41.05C1463.14,989.51,1467,990.25,1471.8,991.11Z" transform="translate(-458.99 -739.8)"/><path class="cls-4" d="M1539.68,871.25H1527c-.62-2.9-1.29-5.51-1.72-8.16-3.64-22.22-25.66-38.83-47.18-38-22,.85-41,16.78-44.76,38.65-.36,2.09-.6,4.2-.94,6.59-4.47,1.87-8.88,1-13.22.79-2.44-18.42,8-38.73,26-50.44,21.49-14,43.55-14.3,65.68-1.72C1529.66,829.67,1541.13,850.49,1539.68,871.25Z" transform="translate(-458.99 -739.8)"/><path class="cls-4" d="M1524.57,886.07h13.19c-.18,2,0,3.81-.52,5.32-8.92,23.84-25.78,37.89-51.26,41.07-29.8,3.72-56.27-15.2-64.74-41.36a29.88,29.88,0,0,1-.75-4.63,38.31,38.31,0,0,1,13.73-.23C1450.85,927.67,1505.9,930,1524.57,886.07Z" transform="translate(-458.99 -739.8)"/><path class="cls-4" d="M1479.58,847.36c13.81.18,25.64,12.55,25.2,26.34-.44,13.56-12.39,25.09-25.77,24.86a26.08,26.08,0,0,1-25.18-25.44C1453.73,859.23,1465.78,847.17,1479.58,847.36Z" transform="translate(-458.99 -739.8)"/><path class="cls-4" d="M1509.29,944.5l12.16,21.2c-22.68,12.66-60.67,12.86-83.9.27A142.79,142.79,0,0,1,1450,944.88C1469.6,952,1489,952.14,1509.29,944.5Z" transform="translate(-458.99 -739.8)"/><path class="cls-4" d="M1376,811c-3.25-1.84-5.66-3.15-8-4.57a18,18,0,0,1-2.44-2.23,132.63,132.63,0,0,1,45-45.65c18.58-11.36,38.86-17.31,60.77-18.79,1.81,3.64,1,7.5.7,11.84-2.84.69-5.41,1.54-8,1.91-34.54,4.74-61.81,21.49-82.25,49.59C1380,805.58,1378.2,808,1376,811Z" transform="translate(-458.99 -739.8)"/><path class="cls-4" d="M1397.15,934.11l20.39-11.73c7.12,4.84,12.66,10.87,19.31,16.41L1425.2,959C1415.47,954.72,1405.26,945.73,1397.15,934.11Z" transform="translate(-458.99 -739.8)"/><path class="cls-4" d="M1486.79,752.43c-.63-4.92-1-8.77.2-12.57,21,1,44,7.85,54.65,16.4-1.59,3.43-3.11,7-6.25,10.06C1520.29,758.46,1504.24,754.16,1486.79,752.43Z" transform="translate(-458.99 -739.8)"/></svg>