<?xml version="1.0"?>
<svg xmlns="http://www.w3.org/2000/svg" xmlns:xlink="http://www.w3.org/1999/xlink" xmlns:svgjs="http://svgjs.com/svgjs" version="1.1" width="512" height="512" x="0" y="0" viewBox="0 0 512 512" style="enable-background:new 0 0 512 512" xml:space="preserve"><g>
<g xmlns="http://www.w3.org/2000/svg">
	<g>
		<g>
			<circle cx="186.182" cy="186.182" r="23.273" fill="#ffffff" data-original="#000000"/>
			<rect x="162.909" y="221.091" width="46.545" height="128" fill="#ffffff" data-original="#000000"/>
			<path d="M256,0C114.615,0,0,114.615,0,256s114.615,256,256,256s256-114.615,256-256S397.385,0,256,0z M256,488.727     C127.468,488.727,23.273,384.532,23.273,256S127.468,23.273,256,23.273S488.727,127.468,488.727,256S384.532,488.727,256,488.727     z" fill="#ffffff" data-original="#000000"/>
			<path d="M318.371,221.091c-34.909,0-39.098,20.713-39.098,20.713v-20.713h-46.545v128h46.545v-69.818c0,0,0-23.273,19.782-23.273     c11.636,0,15.127,10.356,15.127,23.273v69.818h46.545v-69.818C360.727,242.851,344.902,221.091,318.371,221.091z" fill="#ffffff" data-original="#000000"/>
		</g>
	</g>
</g>
<g xmlns="http://www.w3.org/2000/svg">
</g>
<g xmlns="http://www.w3.org/2000/svg">
</g>
<g xmlns="http://www.w3.org/2000/svg">
</g>
<g xmlns="http://www.w3.org/2000/svg">
</g>
<g xmlns="http://www.w3.org/2000/svg">
</g>
<g xmlns="http://www.w3.org/2000/svg">
</g>
<g xmlns="http://www.w3.org/2000/svg">
</g>
<g xmlns="http://www.w3.org/2000/svg">
</g>
<g xmlns="http://www.w3.org/2000/svg">
</g>
<g xmlns="http://www.w3.org/2000/svg">
</g>
<g xmlns="http://www.w3.org/2000/svg">
</g>
<g xmlns="http://www.w3.org/2000/svg">
</g>
<g xmlns="http://www.w3.org/2000/svg">
</g>
<g xmlns="http://www.w3.org/2000/svg">
</g>
<g xmlns="http://www.w3.org/2000/svg">
</g>
</g></svg>
